# xmcd
#
# Track frame offsets:
#	150
#	15871
#	34701
#	49709
#	70091
#	91065
#	101044
#	118554
#	136865
#	153624
#	165145
#	187112
#	202900
#	219166
#	231778
#	248022
#	262233
#	281257
#
# Disc length: 3958 seconds
#
# Revision: 0
# Processed by: cddbd v1.5.1PL2 Copyright (c) Steve Scherf et al.
# Submitted via: EasyCDDAExtractor 9.0.0.1
#
DISCID=e40f7412
DTITLE=country - compil
DYEAR=1900
DGENRE=Country
TTITLE0=Closer
TTITLE1=Addicted To Love
TTITLE2=virginia country line
TTITLE3=hors shoe
TTITLE4=Levantando las manos
TTITLE5=caliente
TTITLE6=jungle freak
TTITLE7=Chatahoochie
TTITLE8=deck 51
TTITLE9=cotton hey joe
TTITLE10=green valley
TTITLE11=capital cha cha
TTITLE12=chil factor
TTITLE13=poruchka paranya
TTITLE14=hooked on country
TTITLE15=pot of gold
TTITLE16=good plesed texas
TTITLE17=sugar et pai
EXTD=
EXTT0=
EXTT1=
EXTT2=
EXTT3=
EXTT4=
EXTT5=
EXTT6=
EXTT7=
EXTT8=
EXTT9=
EXTT10=
EXTT11=
EXTT12=
EXTT13=
EXTT14=
EXTT15=
EXTT16=
EXTT17=
PLAYORDER=
